<?xml version="1.0" standalone="no"?>
<!DOCTYPE svg PUBLIC "-//W3C//DTD SVG 20010904//EN"
 "http://www.w3.org/TR/2001/REC-SVG-20010904/DTD/svg10.dtd">
<svg version="1.0" xmlns="http://www.w3.org/2000/svg"
 width="512.000000pt" height="512.000000pt" viewBox="0 0 512.000000 512.000000"
 preserveAspectRatio="xMidYMid meet">
<metadata>
Created by potrace 1.11, written by Peter Selinger 2001-2013
</metadata>
<g transform="translate(0.000000,512.000000) scale(0.100000,-0.100000)"
fill="#000000" stroke="none">
<path d="M0 2560 l0 -2560 2560 0 2560 0 0 2560 0 2560 -2560 0 -2560 0 0
-2560z m2750 2468 c0 -46 -7 -263 -15 -483 -8 -220 -15 -437 -15 -482 l0 -83
205 0 c228 0 225 1 225 -73 0 -41 -48 -100 -136 -168 l-57 -44 -124 -4 -123
-3 0 -53 0 -54 -136 -65 c-199 -96 -180 -101 -189 48 l-7 126 -109 0 c-112 0
-160 11 -203 48 -19 16 -20 16 -7 0 7 -9 76 -51 154 -93 78 -42 145 -79 148
-83 4 -4 10 -35 14 -69 l7 -62 -66 -33 -66 -32 -33 18 c-154 90 -382 245 -437
298 -35 35 -57 54 -47 42 9 -11 17 -24 17 -27 0 -4 -127 -6 -282 -5 l-283 3 0
140 0 140 247 0 246 0 10 32 c16 52 103 184 158 238 74 75 131 99 229 100 69
0 88 -4 140 -30 46 -24 65 -40 84 -74 18 -33 21 -47 13 -65 -12 -28 -101 -75
-217 -116 -101 -35 -129 -51 -145 -81 -11 -19 -10 -20 9 -9 14 7 89 10 212 10
105 -1 193 0 195 3 2 2 -3 252 -11 556 -9 304 -13 556 -10 561 4 6 90 10 206
10 l199 0 0 -82z m418 -723 c57 -31 145 -126 199 -217 46 -76 67 -163 53 -223
-23 -101 -109 -202 -266 -314 -105 -74 -133 -89 -406 -220 -115 -55 -208 -103
-208 -106 0 -3 17 3 38 13 74 38 113 55 116 51 3 -2 0 -127 -5 -278 -6 -151
-9 -282 -7 -291 2 -13 28 1 113 62 131 93 155 118 155 161 0 64 -61 127 -193
198 -41 22 -57 35 -53 46 3 8 6 37 6 64 l0 49 55 27 55 27 53 -26 c142 -70
253 -163 289 -245 49 -111 15 -240 -91 -342 -50 -48 -279 -202 -368 -248 -34
-17 -62 -43 -46 -43 6 0 10 -8 8 -17 -2 -10 -6 -166 -9 -346 -3 -181 -10 -336
-15 -345 -13 -23 -179 -187 -184 -181 -9 9 -29 728 -21 741 15 25 -95 -73
-126 -112 -90 -114 -79 -221 37 -373 26 -34 58 -73 70 -87 20 -22 23 -35 23
-109 l0 -85 -36 35 c-30 28 -79 78 -160 163 -39 42 -130 171 -156 224 -26 53
-30 69 -25 113 15 128 136 287 309 409 29 21 52 41 52 46 -6 36 -25 597 -21
608 3 8 33 29 67 47 33 17 58 34 56 37 -12 11 -226 -129 -288 -188 -60 -57
-68 -70 -68 -102 0 -20 3 -43 6 -52 3 -8 55 -52 115 -97 60 -44 109 -84 109
-88 6 -143 5 -166 -10 -182 -14 -17 -24 -12 -180 92 -193 129 -240 172 -282
257 -59 118 -32 229 81 341 48 46 91 74 189 124 116 59 373 181 497 237 273
122 403 208 454 299 21 38 22 47 12 81 -19 63 -64 93 -209 139 -132 43 -182
73 -182 111 0 23 65 97 103 117 55 28 80 33 162 30 66 -3 90 -8 133 -32z m772
-465 l0 -140 -295 0 -295 0 34 53 c41 61 61 132 53 187 l-5 40 254 0 254 0 0
-140z m-1163 -1402 c72 -65 110 -107 158 -173 117 -162 112 -275 -20 -460 -41
-57 -93 -110 -350 -355 -172 -163 -212 -214 -236 -291 -30 -98 -12 -154 87
-283 52 -67 54 -72 54 -130 l-1 -61 -93 97 c-114 119 -151 172 -178 261 -25
85 -20 137 23 217 36 68 166 218 304 350 180 173 267 278 307 367 18 42 19 52
9 100 -14 61 -77 161 -127 201 -34 27 -34 28 -34 109 0 81 4 90 38 92 7 1 34
-18 59 -41z m-41 -1034 c134 -156 166 -215 166 -304 1 -62 -28 -148 -67 -200
-14 -19 -67 -77 -118 -130 -270 -277 -330 -405 -282 -609 9 -35 14 -66 12 -68
-8 -7 -49 101 -59 157 -22 115 42 289 160 438 199 251 228 307 220 416 -6 67
-28 118 -82 190 -33 42 -36 52 -37 119 l-2 72 -7 -60 c-4 -33 -11 -183 -15
-335 -4 -151 -12 -286 -17 -299 -10 -27 -106 -151 -116 -151 -4 0 -8 33 -8 73
-1 39 -7 196 -13 347 l-12 275 84 82 c47 46 90 81 100 79 9 -1 51 -42 93 -92z
m-44 -909 c26 -77 34 -175 19 -247 -11 -53 -68 -184 -77 -175 -2 2 6 37 17 78
26 91 22 206 -10 287 -15 38 -21 75 -21 130 l0 77 26 -45 c14 -24 34 -71 46
-105z m-89 -47 c-3 -101 -8 -239 -12 -308 l-6 -125 -37 -3 c-33 -3 -37 0 -42
25 -3 15 -6 125 -8 243 l-3 215 48 68 c26 37 52 67 57 67 4 0 6 -82 3 -182z"/>
<path d="M2105 4271 c-8 -14 32 -33 55 -26 11 4 20 13 20 21 0 16 -65 20 -75
5z"/>
<path d="M1671 3840 c0 -8 4 -22 9 -30 12 -18 12 -2 0 25 -6 13 -9 15 -9 5z"/>
<path d="M1978 3813 c11 -16 30 -37 43 -48 12 -11 5 1 -16 28 -43 52 -57 63
-27 20z"/>
<path d="M2901 4276 c-10 -12 -8 -18 12 -31 28 -18 77 -6 77 19 0 27 -69 36
-89 12z"/>
</g>
</svg>
