<?xml version="1.0" encoding="UTF-8"?>
<svg xmlns="http://www.w3.org/2000/svg" viewBox="0 0 512 512">
<defs>
<linearGradient id="linear0" gradientUnits="userSpaceOnUse" x1="0.77567" y1="0.50017" x2="-4.1" y2="0.50017" gradientTransform="matrix(49.98642,0,0,244.282379,1004.381104,1723.904572)">
<stop offset="0" style="stop-color:rgb(63.529412%,50.196078%,19.215686%);stop-opacity:1;"/>
<stop offset="1" style="stop-color:rgb(97.647059%,85.882353%,47.45098%);stop-opacity:1;"/>
</linearGradient>
<linearGradient id="linear1" gradientUnits="userSpaceOnUse" x1="0.24696" y1="0.5" x2="0.81197" y2="0.5" gradientTransform="matrix(1077.011719,0,0,1981.994019,450.995636,-0.997009)">
<stop offset="0" style="stop-color:rgb(97.647059%,85.882353%,47.45098%);stop-opacity:1;"/>
<stop offset="1" style="stop-color:rgb(63.529412%,50.196078%,19.215686%);stop-opacity:1;"/>
</linearGradient>
<linearGradient id="linear2" gradientUnits="userSpaceOnUse" x1="0.95932" y1="0.50013" x2="0.16879" y2="0.50013" gradientTransform="matrix(334.118958,0,0,709.039764,839.255219,1013.097382)">
<stop offset="0" style="stop-color:rgb(63.529412%,50.196078%,19.215686%);stop-opacity:1;"/>
<stop offset="1" style="stop-color:rgb(97.647059%,85.882353%,47.45098%);stop-opacity:1;"/>
</linearGradient>
<linearGradient id="linear3" gradientUnits="userSpaceOnUse" x1="0.99041" y1="0.50006" x2="0.3558" y2="0.50006" gradientTransform="matrix(440.995331,0,0,724.689789,792.501526,659.506531)">
<stop offset="0" style="stop-color:rgb(63.529412%,50.196078%,19.215686%);stop-opacity:1;"/>
<stop offset="1" style="stop-color:rgb(97.647059%,85.882353%,47.45098%);stop-opacity:1;"/>
</linearGradient>
<linearGradient id="linear4" gradientUnits="userSpaceOnUse" x1="0.50001" y1="0.00009" x2="0.50001" y2="1.0001" gradientTransform="matrix(210.973206,0,0,569.126129,915.99472,1391.885376)">
<stop offset="0" style="stop-color:rgb(63.529412%,50.196078%,19.215686%);stop-opacity:1;"/>
<stop offset="1" style="stop-color:rgb(97.647059%,85.882353%,47.45098%);stop-opacity:1;"/>
</linearGradient>
<linearGradient id="linear5" gradientUnits="userSpaceOnUse" x1="0.03196" y1="0.50001" x2="1.64" y2="0.50001" gradientTransform="matrix(282.621918,0,0,391.477203,639.490814,292.320099)">
<stop offset="0" style="stop-color:rgb(97.647059%,85.882353%,47.45098%);stop-opacity:1;"/>
<stop offset="1" style="stop-color:rgb(63.529412%,50.196078%,19.215686%);stop-opacity:1;"/>
</linearGradient>
<linearGradient id="linear6" gradientUnits="userSpaceOnUse" x1="0.5" y1="-0.01095" x2="0.5" y2="0.99314" gradientTransform="matrix(600.773621,0,0,726.940613,726.532745,294.691772)">
<stop offset="0" style="stop-color:rgb(63.529412%,50.196078%,19.215686%);stop-opacity:1;"/>
<stop offset="1" style="stop-color:rgb(97.647059%,85.882353%,47.45098%);stop-opacity:1;"/>
</linearGradient>
</defs>
<g id="surface1">
<rect x="0" y="0" width="512" height="512" style="fill:rgb(0%,0%,0%);fill-opacity:1;stroke:none;"/>
<path style=" stroke:none;fill-rule:nonzero;fill:rgb(0%,0%,0%);fill-opacity:1;" d="M 116.621094 0 L 395.378906 0 L 395.378906 512 L 116.621094 512 Z M 116.621094 0 "/>
<path style="fill-rule:nonzero;fill:url(#linear0);stroke-width:5;stroke-linecap:butt;stroke-linejoin:round;stroke:rgb(0%,0%,0%);stroke-opacity:1;stroke-miterlimit:3;" d="M 1007.885742 1726.397095 C 1023.883209 1747.394714 1040.877686 1781.398773 1044.880829 1800.402374 C 1049.880981 1816.399841 1050.877991 1827.397156 1051.875 1845.403748 C 1052.887115 1872.398529 1047.886963 1903.396454 1031.87439 1933.397369 C 1022.8862 1949.394836 1012.885895 1967.401428 1011.873779 1966.404419 C 1010.87677 1965.40741 1027.886353 1909.393616 1029.880371 1892.399139 C 1032.886505 1868.395386 1028.883362 1832.397308 1006.873627 1783.392792 Z M 1007.885742 1726.397095 " transform="matrix(0.258586,0,0,0.258586,0,0)"/>
<path style="fill-rule:nonzero;fill:url(#linear1);stroke-width:8;stroke-linecap:butt;stroke-linejoin:round;stroke:rgb(0%,0%,0%);stroke-opacity:1;stroke-miterlimit:3;" d="M 900.994263 3.006134 L 1065.002289 3.006134 L 1050.99884 438.004303 L 1524.004211 437.007294 L 1524.004211 552.992706 L 1049.004822 554.004822 L 1000.997314 1976.993866 L 964.999237 1976.993866 L 917.006836 554.004822 L 454.998779 554.004822 L 454.998779 440.995331 L 913.003693 440.995331 Z M 900.994263 3.006134 " transform="matrix(0.258586,0,0,0.258586,0,0)"/>
<path style="fill-rule:nonzero;fill:url(#linear2);stroke-width:6;stroke-linecap:butt;stroke-linejoin:round;stroke:rgb(0%,0%,0%);stroke-opacity:1;stroke-miterlimit:3;" d="M 1026.390839 1388.093719 C 1016.299896 1397.097015 1029.396973 1385.102692 1029.396973 1385.102692 C 1038.596649 1377.730865 1050.862885 1365.570374 1057.388763 1360.101929 C 1096.392975 1328.106995 1165.382996 1253.104706 1170.383148 1194.099884 C 1176.395416 1135.095062 1110.396423 1061.104889 1052.388611 1017.100525 C 1051.391602 1017.100525 1050.394592 1016.103516 1050.394592 1016.103516 C 1043.385315 1020.106659 1033.38501 1027.10083 1034.397125 1027.10083 L 1032.388 1087.102661 C 1056.391754 1104.097137 1096.392975 1147.104492 1098.386993 1193.102875 C 1099.384003 1230.097961 1017.296906 1313.77121 1017.296906 1314.768219 M 1020.000916 1311.882935 C 1020.000916 1311.882935 936.388092 1394.090881 935.391083 1393.093872 C 923.396759 1406.100311 907.384186 1425.103912 896.386871 1437.098236 C 820.387573 1521.103821 841.385193 1562.102051 856.385651 1603.100281 C 869.39209 1634.098206 957.385712 1722.091827 957.385712 1720.097809 C 957.385712 1714.100647 956.328278 1678.601074 956.328278 1671.591797 C 947.324982 1660.594482 933.397064 1639.098358 924.393768 1627.088928 C 879.392395 1566.090088 898.395996 1540.092316 908.396301 1512.100525 C 911.387329 1504.094238 933.397064 1478.096466 951.38855 1459.092865 C 952.385559 1458.095856 1029.079742 1384.936523 1029.759521 1384.936523 " transform="matrix(0.258586,0,0,0.258586,0,0)"/>
<path style="fill-rule:nonzero;fill:url(#linear3);stroke-width:5;stroke-linecap:butt;stroke-linejoin:round;stroke:rgb(0%,0%,0%);stroke-opacity:1;stroke-miterlimit:3;" d="M 1042.992554 756.004944 C 1042.992554 754.992828 1049.004822 757.998962 1055.001984 761.005096 C 1099.006348 784.993744 1177.996674 829.995117 1116.997833 875.9935 C 1055.998993 920.994873 964.999237 983.005829 905.994415 1026.995087 C 848.001709 1070.999451 789.993896 1135.004425 794.994049 1193.994141 C 799.994202 1252.998962 930.677948 1370.706482 946.675415 1381.703796 C 947.687531 1381.703796 944.500122 1325.992126 944.500122 1324.995117 C 898.50174 1277.999725 866.008301 1223.995056 867.00531 1192.997131 C 870.011444 1135.004425 927.007141 1094.006195 1030.001221 1026.995087 C 1070.999451 1000.000305 1115.003815 974.999542 1156.002045 945.995636 C 1199.009399 916.99173 1234.010468 878.002625 1231.004333 822.003937 C 1229.010315 767.999268 1179.008789 731.004181 1136.998444 707.000427 C 1105.00351 687.996826 1045.001678 661.999054 1045.998688 661.999054 C 1047.010803 661.002045 1043.00766 757.001953 1043.00766 756.004944 Z M 1042.992554 756.004944 " transform="matrix(0.258586,0,0,0.258586,0,0)"/>
<path style="fill-rule:nonzero;fill:url(#linear4);stroke-width:6;stroke-linecap:butt;stroke-linejoin:round;stroke:rgb(0%,0%,0%);stroke-opacity:1;stroke-miterlimit:3;" d="M 1020.997925 1392.006226 Z M 1018.762207 1465.180664 C 1019.245605 1465.603638 1017.901154 1458.669891 1018.369446 1459.123077 C 1037.841339 1477.552643 1059.005127 1519.004059 1059.005127 1519.004059 C 1059.005127 1519.004059 1086.996918 1572.993622 1041.995544 1633.992462 C 1039.004517 1638.992615 1035.998383 1642.995758 1033.007355 1646.998901 C 1015.000763 1670.005646 999.003296 1693.994293 979.002686 1716.004028 C 956.99295 1741.004791 944.998627 1762.99942 933.004303 1793.997345 C 929.00116 1804.994659 919.000854 1833.001556 919.000854 1850.993042 L 919.000854 1875.993805 C 920.994873 1904.997711 932.007294 1924.001312 939.998474 1943.004913 C 946.992645 1960.996399 949.998779 1959.00238 950.995789 1958.005371 C 951.992798 1956.993256 939.998474 1915.995026 938.004456 1899.997559 C 930.995178 1853.002167 939.998474 1814.994965 980.996704 1758.996277 C 1019.003906 1707.997742 1094.006195 1650.005035 1110.003662 1610.003815 C 1126.001129 1569.005585 1145.00473 1531.995392 1069.005432 1448.004913 C 1054.004974 1432.007446 1039.004517 1410.99472 1021.994934 1394.000244 " transform="matrix(0.258586,0,0,0.258586,0,0)"/>
<path style="fill-rule:nonzero;fill:rgb(0%,0%,0%);fill-opacity:1;stroke-width:1;stroke-linecap:butt;stroke-linejoin:round;stroke:rgb(0%,0%,0%);stroke-opacity:1;stroke-miterlimit:3;" d="M 1135.004425 322.003784 C 1126.001129 322.003784 1119.006958 326.006927 1119.006958 331.00708 C 1119.006958 336.007233 1126.001129 339.99527 1135.004425 339.99527 C 1143.992615 339.99527 1151.998901 336.007233 1151.998901 331.00708 C 1151.998901 326.006927 1143.992615 322.003784 1135.004425 322.003784 Z M 1135.004425 322.003784 " transform="matrix(0.258586,0,0,0.258586,0,0)"/>
<path style="fill-rule:nonzero;fill:url(#linear5);stroke-width:6;stroke-linecap:butt;stroke-linejoin:round;stroke:rgb(0%,0%,0%);stroke-opacity:1;stroke-miterlimit:3;" d="M 897.111969 589.096527 L 805.115204 541.08902 C 805.115204 541.08902 698.102875 468.095856 776.111298 422.097473 C 776.111298 422.097473 911.115417 384.090271 898.108978 354.089355 C 898.108978 354.089355 896.11496 342.095032 883.108521 326.082458 C 870.117188 311.097107 781.11145 255.083313 704.115143 344.08905 C 704.115143 344.08905 694.114838 354.089355 674.114227 385.08728 C 674.114227 385.08728 651.107483 420.088348 651.107483 430.088654 C 651.107483 430.088654 608.115234 496.087646 711.109314 580.093231 C 728.10379 593.084564 853.107605 671.092987 870.117188 681.093292 L 920.103607 657.089539 C 922.112732 657.089539 919.106598 602.08786 919.106598 602.08786 C 907.112274 595.093689 897.111969 589.096527 897.111969 589.096527 Z M 897.111969 589.096527 " transform="matrix(0.258586,0,0,0.258586,0,0)"/>
<path style="fill-rule:nonzero;fill:rgb(0%,0%,0%);fill-opacity:1;stroke-width:1;stroke-linecap:butt;stroke-linejoin:round;stroke:rgb(0%,0%,0%);stroke-opacity:1;stroke-miterlimit:3;" d="M 827.004089 322.003784 C 836.007385 322.003784 843.001556 326.006927 843.001556 331.00708 C 843.001556 336.007233 836.007385 339.99527 827.004089 339.99527 C 818.000793 339.99527 811.006622 336.007233 811.006622 331.00708 C 811.006622 326.006927 818.000793 322.003784 827.004089 322.003784 Z M 827.004089 322.003784 " transform="matrix(0.258586,0,0,0.258586,0,0)"/>
<path style="fill:none;stroke-width:2;stroke-linecap:butt;stroke-linejoin:round;stroke:rgb(100%,0%,0%);stroke-opacity:1;stroke-miterlimit:3;" d="M 1025.001068 1216.003876 L 1025.001068 1216.003876 " transform="matrix(0.258586,0,0,0.258586,0,0)"/>
<path style="fill-rule:nonzero;fill:url(#linear6);stroke-width:6;stroke-linecap:butt;stroke-linejoin:round;stroke:rgb(0%,0%,0%);stroke-opacity:1;stroke-miterlimit:3;" d="M 1034.004364 604.006348 C 1034.004364 602.994232 1087.993927 580.002594 1120.003967 564.005127 C 1136.001434 555.99884 1146.998749 549.004669 1157.996063 540.998383 C 1161.999207 538.007355 1210.006714 505.997314 1218.994904 476.993408 C 1227.00119 449.998627 1197.000275 424.997864 1192.000122 423.003845 C 1167.996368 413.00354 1127.995148 403.003235 1095.003204 389.996796 C 1060.002136 375.993347 1067.993317 353.001709 1067.993317 353.001709 C 1067.993317 353.001709 1084.00589 314.994507 1135.004425 301.006165 C 1197.000275 283.996582 1247.001801 324.994812 1252.001953 332.004089 C 1266.005402 350.992584 1333.998413 415.994568 1323.998108 479.999542 C 1317.003937 530.998077 1268.996429 580.002594 1176.002655 636.998291 C 1105.00351 681.002655 773.996429 803.000336 848.001709 875.9935 C 882.005768 902.006378 930.995178 938.744659 930.995178 939.756775 C 929.998169 939.756775 933.261108 1005.498962 932.264099 1006.495972 C 931.26709 1007.492981 925.995026 1013.006744 914.997711 1019.003906 C 900.994263 1010.00061 878.999634 990.997009 864.996185 983.005829 C 817.003784 953.004913 758.995972 922.006989 736.004333 865.993195 C 707.997437 793.99704 769.993286 733.995209 827.004089 702.000275 C 836.007385 697.000122 1034.004364 604.006348 1034.004364 604.006348 Z M 1034.004364 604.006348 " transform="matrix(0.258586,0,0,0.258586,0,0)"/>
<path style="fill-rule:nonzero;fill:rgb(0%,0%,0%);fill-opacity:1;stroke-width:1;stroke-linecap:butt;stroke-linejoin:round;stroke:rgb(0%,0%,0%);stroke-opacity:1;stroke-miterlimit:3;" d="M 1135.004425 339.99527 C 1126.001129 339.99527 1119.006958 336.007233 1119.006958 331.00708 C 1119.006958 326.006927 1126.001129 322.003784 1135.004425 322.003784 C 1143.992615 322.003784 1151.998901 326.006927 1151.998901 331.00708 C 1151.998901 336.007233 1143.992615 339.99527 1135.004425 339.99527 Z M 1135.004425 339.99527 " transform="matrix(0.258586,0,0,0.258586,0,0)"/>
</g>
</svg>
